<svg width="200.000000" height="200.000000" viewBox="0 0 200 200" fill="none" xmlns="http://www.w3.org/2000/svg" xmlns:xlink="http://www.w3.org/1999/xlink">
	<desc>
			Created with Pixso.
	</desc>
	<defs/>
	<rect id="Rectangle" x="100.000000" y="100.000000" width="100.000000" height="100.000000" transform="rotate(180 100.000000 100.000000)" fill="#2C6269" fill-opacity="1.000000"/>
	<rect id="Rectangle" x="100.000000" y="100.000000" width="100.000000" height="100.000000" transform="rotate(180 100.000000 100.000000)" stroke="#979797" stroke-opacity="0" stroke-width="0.000000"/>
	<mask id="mask_0_3726" fill="white">
		<path id="Combined Shape Copy" d="M100 0C44.7715 0 0 44.7715 0 100C0 155.229 44.7715 200 100 200C155.229 200 200 155.229 200 100C200 44.7715 155.229 0 100 0ZM100 67C81.7744 67 67 81.7747 67 100C67 118.225 81.7744 133 100 133C118.226 133 133 118.225 133 100C133 81.7747 118.226 67 100 67Z" clip-rule="evenodd" fill="" fill-opacity="1.000000" fill-rule="evenodd"/>
	</mask>
	<path id="Combined Shape Copy" d="M100 0C44.7715 0 0 44.7715 0 100C0 155.229 44.7715 200 100 200C155.229 200 200 155.229 200 100C200 44.7715 155.229 0 100 0ZM100 67C81.7744 67 67 81.7747 67 100C67 118.225 81.7744 133 100 133C118.226 133 133 118.225 133 100C133 81.7747 118.226 67 100 67Z" clip-rule="evenodd" fill="#F67E7E" fill-opacity="1.000000" fill-rule="evenodd" mask="url(#mask_0_3726)"/>
	<path id="Combined Shape Copy" d="" fill="#979797" fill-opacity="0.000000" fill-rule="nonzero"/>
	<mask id="mask_0_3729" fill="white">
		<path id="Combined Shape" d="M100 0L0 0L0 4L100 4L100 0ZM100 8L0 8L0 12L100 12L100 8ZM0 16L100 16L100 20L0 20L0 16ZM100 24L0 24L0 28L100 28L100 24ZM0 32L100 32L100 36L0 36L0 32ZM100 40L0 40L0 44L100 44L100 40Z" clip-rule="evenodd" fill="" fill-opacity="1.000000" fill-rule="evenodd"/>
	</mask>
	<path id="Combined Shape" d="M100 0L0 0L0 4L100 4L100 0ZM100 8L0 8L0 12L100 12L100 8ZM0 16L100 16L100 20L0 20L0 16ZM100 24L0 24L0 28L100 28L100 24ZM0 32L100 32L100 36L0 36L0 32ZM100 40L0 40L0 44L100 44L100 40Z" clip-rule="evenodd" fill="#79C8C7" fill-opacity="1.000000" fill-rule="evenodd" mask="url(#mask_0_3729)"/>
	<path id="Combined Shape" d="" fill="#979797" fill-opacity="0.000000" fill-rule="nonzero"/>
</svg>
