<svg width="200.000000" height="200.000000" viewBox="0 0 200 200" fill="none" xmlns="http://www.w3.org/2000/svg" xmlns:xlink="http://www.w3.org/1999/xlink">
	<desc>
			Created with Pixso.
	</desc>
	<defs/>
	<rect id="Rectangle" width="100.000000" height="100.000000" transform="matrix(1 0 0 -1 100 200)" fill="#79C8C7" fill-opacity="1.000000"/>
	<rect id="Rectangle" width="100.000000" height="100.000000" transform="matrix(1 0 0 -1 100 200)" stroke="#979797" stroke-opacity="0" stroke-width="0.000000"/>
	<mask id="mask_0_4129" fill="white">
		<path id="Combined Shape Copy" d="M100 0C155.229 0 200 44.7715 200 100C200 155.229 155.229 200 100 200C44.7715 200 0 155.229 0 100C0 44.7715 44.7715 0 100 0ZM100 67C118.225 67 133 81.7747 133 100C133 118.225 118.225 133 100 133C81.7746 133 67 118.225 67 100C67 81.7747 81.7746 67 100 67Z" clip-rule="evenodd" fill="" fill-opacity="1.000000" fill-rule="evenodd"/>
	</mask>
	<path id="Combined Shape Copy" d="M100 0C155.229 0 200 44.7715 200 100C200 155.229 155.229 200 100 200C44.7715 200 0 155.229 0 100C0 44.7715 44.7715 0 100 0ZM100 67C118.225 67 133 81.7747 133 100C133 118.225 118.225 133 100 133C81.7746 133 67 118.225 67 100C67 81.7747 81.7746 67 100 67Z" clip-rule="evenodd" fill="#012F34" fill-opacity="1.000000" fill-rule="evenodd" mask="url(#mask_0_4129)"/>
	<path id="Combined Shape Copy" d="" fill="#979797" fill-opacity="0.000000" fill-rule="nonzero"/>
	<mask id="mask_0_4132" fill="white">
		<path id="Combined Shape" d="M200 156L196 156L196 160L200 160L200 156ZM193 156L189 156L189 160L193 160L193 156ZM186 156L182 156L182 160L186 160L186 156ZM179 156L175 156L175 160L179 160L179 156ZM172 156L168 156L168 160L172 160L172 156ZM165 156L161 156L161 160L165 160L165 156ZM158 156L154 156L154 160L158 160L158 156ZM151 156L147 156L147 160L151 160L151 156ZM200 164L196 164L196 168L200 168L200 164ZM193 164L189 164L189 168L193 168L193 164ZM186 164L182 164L182 168L186 168L186 164ZM179 164L175 164L175 168L179 168L179 164ZM172 164L168 164L168 168L172 168L172 164ZM165 164L161 164L161 168L165 168L165 164ZM158 164L154 164L154 168L158 168L158 164ZM151 164L147 164L147 168L151 168L151 164ZM200 172L196 172L196 176L200 176L200 172ZM193 172L189 172L189 176L193 176L193 172ZM186 172L182 172L182 176L186 176L186 172ZM179 172L175 172L175 176L179 176L179 172ZM172 172L168 172L168 176L172 176L172 172ZM165 172L161 172L161 176L165 176L165 172ZM158 172L154 172L154 176L158 176L158 172ZM151 172L147 172L147 176L151 176L151 172ZM200 180L196 180L196 184L200 184L200 180ZM193 180L189 180L189 184L193 184L193 180ZM186 180L182 180L182 184L186 184L186 180ZM179 180L175 180L175 184L179 184L179 180ZM172 180L168 180L168 184L172 184L172 180ZM165 180L161 180L161 184L165 184L165 180ZM158 180L154 180L154 184L158 184L158 180ZM151 180L147 180L147 184L151 184L151 180ZM200 188L196 188L196 192L200 192L200 188ZM193 188L189 188L189 192L193 192L193 188ZM186 188L182 188L182 192L186 192L186 188ZM179 188L175 188L175 192L179 192L179 188ZM172 188L168 188L168 192L172 192L172 188ZM165 188L161 188L161 192L165 192L165 188ZM158 188L154 188L154 192L158 192L158 188ZM151 188L147 188L147 192L151 192L151 188ZM200 196L196 196L196 200L200 200L200 196ZM193 196L189 196L189 200L193 200L193 196ZM186 196L182 196L182 200L186 200L186 196ZM179 196L175 196L175 200L179 200L179 196ZM172 196L168 196L168 200L172 200L172 196ZM165 196L161 196L161 200L165 200L165 196ZM158 196L154 196L154 200L158 200L158 196ZM151 196L147 196L147 200L151 200L151 196Z" clip-rule="evenodd" fill="" fill-opacity="1.000000" fill-rule="evenodd"/>
	</mask>
	<path id="Combined Shape" d="M200 156L196 156L196 160L200 160L200 156ZM193 156L189 156L189 160L193 160L193 156ZM186 156L182 156L182 160L186 160L186 156ZM179 156L175 156L175 160L179 160L179 156ZM172 156L168 156L168 160L172 160L172 156ZM165 156L161 156L161 160L165 160L165 156ZM158 156L154 156L154 160L158 160L158 156ZM151 156L147 156L147 160L151 160L151 156ZM200 164L196 164L196 168L200 168L200 164ZM193 164L189 164L189 168L193 168L193 164ZM186 164L182 164L182 168L186 168L186 164ZM179 164L175 164L175 168L179 168L179 164ZM172 164L168 164L168 168L172 168L172 164ZM165 164L161 164L161 168L165 168L165 164ZM158 164L154 164L154 168L158 168L158 164ZM151 164L147 164L147 168L151 168L151 164ZM200 172L196 172L196 176L200 176L200 172ZM193 172L189 172L189 176L193 176L193 172ZM186 172L182 172L182 176L186 176L186 172ZM179 172L175 172L175 176L179 176L179 172ZM172 172L168 172L168 176L172 176L172 172ZM165 172L161 172L161 176L165 176L165 172ZM158 172L154 172L154 176L158 176L158 172ZM151 172L147 172L147 176L151 176L151 172ZM200 180L196 180L196 184L200 184L200 180ZM193 180L189 180L189 184L193 184L193 180ZM186 180L182 180L182 184L186 184L186 180ZM179 180L175 180L175 184L179 184L179 180ZM172 180L168 180L168 184L172 184L172 180ZM165 180L161 180L161 184L165 184L165 180ZM158 180L154 180L154 184L158 184L158 180ZM151 180L147 180L147 184L151 184L151 180ZM200 188L196 188L196 192L200 192L200 188ZM193 188L189 188L189 192L193 192L193 188ZM186 188L182 188L182 192L186 192L186 188ZM179 188L175 188L175 192L179 192L179 188ZM172 188L168 188L168 192L172 192L172 188ZM165 188L161 188L161 192L165 192L165 188ZM158 188L154 188L154 192L158 192L158 188ZM151 188L147 188L147 192L151 192L151 188ZM200 196L196 196L196 200L200 200L200 196ZM193 196L189 196L189 200L193 200L193 196ZM186 196L182 196L182 200L186 200L186 196ZM179 196L175 196L175 200L179 200L179 196ZM172 196L168 196L168 200L172 200L172 196ZM165 196L161 196L161 200L165 200L165 196ZM158 196L154 196L154 200L158 200L158 196ZM151 196L147 196L147 200L151 200L151 196Z" clip-rule="evenodd" fill="#F67E7E" fill-opacity="1.000000" fill-rule="evenodd" mask="url(#mask_0_4132)"/>
	<path id="Combined Shape" d="" fill="#979797" fill-opacity="0.000000" fill-rule="nonzero"/>
</svg>
