<svg width="358.000000" height="200.000000" viewBox="0 0 358 200" fill="none" xmlns="http://www.w3.org/2000/svg" xmlns:xlink="http://www.w3.org/1999/xlink">
	<desc>
			Created with Pixso.
	</desc>
	<defs/>
	<circle id="Oval" cx="100.000000" cy="100.000000" r="100.000000" fill="#2C6269" fill-opacity="1.000000"/>
	<circle id="Oval" cx="100.000000" cy="100.000000" r="100.000000" stroke="#979797" stroke-opacity="0" stroke-width="0.000000"/>
	<mask id="mask_0_4191" fill="white">
		<path id="Combined Shape" d="M258 0C202.771 0 158 44.7715 158 100C158 155.229 202.771 200 258 200C313.229 200 358 155.229 358 100C358 44.7715 313.229 0 258 0ZM258 67C239.775 67 225 81.7746 225 100C225 118.225 239.775 133 258 133C276.225 133 291 118.225 291 100C291 81.7746 276.225 67 258 67Z" clip-rule="evenodd" fill="" fill-opacity="1.000000" fill-rule="evenodd"/>
	</mask>
	<path id="Combined Shape" d="M258 0C202.771 0 158 44.7715 158 100C158 155.229 202.771 200 258 200C313.229 200 358 155.229 358 100C358 44.7715 313.229 0 258 0ZM258 67C239.775 67 225 81.7746 225 100C225 118.225 239.775 133 258 133C276.225 133 291 118.225 291 100C291 81.7746 276.225 67 258 67Z" clip-rule="evenodd" fill="#012F34" fill-opacity="1.000000" fill-rule="evenodd" mask="url(#mask_0_4191)"/>
	<path id="Combined Shape" d="" fill="#979797" fill-opacity="0.000000" fill-rule="nonzero"/>
	<rect id="Rectangle" x="358.000000" y="43.000000" width="43.000000" height="43.000000" transform="rotate(180 358.000000 43.000000)" fill="#79C8C7" fill-opacity="1.000000"/>
	<rect id="Rectangle" x="358.000000" y="43.000000" width="43.000000" height="43.000000" transform="rotate(180 358.000000 43.000000)" stroke="#979797" stroke-opacity="0" stroke-width="0.000000"/>
	<mask id="mask_0_4195" fill="white">
		<path id="Combined Shape Copy" d="M233.514 0C178.285 0 133.514 44.7715 133.514 100C133.514 155.229 178.285 200 233.514 200C288.742 200 333.514 155.229 333.514 100C333.514 44.7715 288.742 0 233.514 0ZM233.514 67C215.288 67 200.514 81.7746 200.514 100C200.514 118.225 215.288 133 233.514 133C251.739 133 266.514 118.225 266.514 100C266.514 81.7746 251.739 67 233.514 67Z" clip-rule="evenodd" fill="" fill-opacity="1.000000" fill-rule="evenodd"/>
	</mask>
	<path id="Combined Shape Copy" d="M233.514 0C178.285 0 133.514 44.7715 133.514 100C133.514 155.229 178.285 200 233.514 200C288.742 200 333.514 155.229 333.514 100C333.514 44.7715 288.742 0 233.514 0ZM233.514 67C215.288 67 200.514 81.7746 200.514 100C200.514 118.225 215.288 133 233.514 133C251.739 133 266.514 118.225 266.514 100C266.514 81.7746 251.739 67 233.514 67Z" clip-rule="evenodd" fill="#F67E7E" fill-opacity="1.000000" fill-rule="evenodd" mask="url(#mask_0_4195)"/>
	<path id="Combined Shape Copy" d="" fill="#979797" fill-opacity="0.000000" fill-rule="nonzero"/>
	<mask id="mask_0_4198" fill="white">
		<path id="Combined Shape" d="M100 0L0 0L0 4L100 4L100 0ZM100 8L0 8L0 12L100 12L100 8ZM0 16L100 16L100 20L0 20L0 16ZM100 24L0 24L0 28L100 28L100 24ZM0 32L100 32L100 36L0 36L0 32ZM100 40L0 40L0 44L100 44L100 40Z" clip-rule="evenodd" fill="" fill-opacity="1.000000" fill-rule="evenodd"/>
	</mask>
	<path id="Combined Shape" d="M100 0L0 0L0 4L100 4L100 0ZM100 8L0 8L0 12L100 12L100 8ZM0 16L100 16L100 20L0 20L0 16ZM100 24L0 24L0 28L100 28L100 24ZM0 32L100 32L100 36L0 36L0 32ZM100 40L0 40L0 44L100 44L100 40Z" clip-rule="evenodd" fill="#79C8C7" fill-opacity="1.000000" fill-rule="evenodd" mask="url(#mask_0_4198)"/>
	<path id="Combined Shape" d="" fill="#979797" fill-opacity="0.000000" fill-rule="nonzero"/>
</svg>
